<?xml version="1.0" encoding="utf-8"?>
<!-- Generator: Adobe Illustrator 26.3.1, SVG Export Plug-In . SVG Version: 6.00 Build 0)  -->
<svg xmlns="http://www.w3.org/2000/svg" xlink="http://www.w3.org/1999/xlink" version="1.1" id="Layer_1" x="0px" y="0px" viewBox="0 0 32 14.46" style="enable-background:new 0 0 32 14.46;" xml:space="preserve">
<style type="text/css">
	.st0{fill-rule:evenodd;clip-rule:evenodd;}
	.st1{fill:#003DA5;}
</style>
<g>
	<g>
		<g id="XMLID_625_">
			<path class="st0" d="M3.57,13.24H4.4l-0.31-1.01c-0.01-0.03-0.02-0.08-0.04-0.15c-0.02-0.07-0.04-0.16-0.06-0.26     c-0.02,0.08-0.04,0.15-0.05,0.22c-0.02,0.07-0.03,0.13-0.05,0.2L3.57,13.24L3.57,13.24z M2.4,14.38l1.05-3.06l1.04,0l1.06,3.06     H4.73l-0.15-0.55H3.39l-0.16,0.55H2.4L2.4,14.38z M5.89,11.32h0.83l0,1.49c0,0.22,0.01,0.38,0.02,0.47     c0.01,0.09,0.03,0.17,0.06,0.24c0.03,0.08,0.09,0.14,0.17,0.18c0.08,0.04,0.18,0.06,0.29,0.06c0.11,0,0.21-0.02,0.29-0.06     c0.08-0.04,0.13-0.1,0.17-0.18c0.03-0.06,0.05-0.14,0.06-0.24c0.01-0.1,0.02-0.25,0.02-0.47V12.6l0-1.28l0.83,0l0,1.62     c0,0.33-0.02,0.58-0.06,0.74c-0.04,0.16-0.11,0.3-0.2,0.41c-0.1,0.12-0.25,0.22-0.43,0.28c-0.18,0.06-0.4,0.09-0.66,0.09     c-0.26,0-0.48-0.03-0.66-0.09c-0.18-0.06-0.33-0.16-0.43-0.28c-0.09-0.11-0.16-0.25-0.2-0.41c-0.04-0.16-0.06-0.41-0.06-0.74     v-0.32L5.89,11.32L5.89,11.32z M9.82,14.38l0-2.33H9.13v-0.72h2.2v0.72h-0.68l0,2.33L9.82,14.38L9.82,14.38z M14.94,12.86     c0,0.22-0.04,0.43-0.12,0.62c-0.08,0.19-0.2,0.36-0.35,0.52c-0.16,0.15-0.33,0.27-0.53,0.35c-0.2,0.08-0.41,0.12-0.62,0.12     c-0.22,0-0.43-0.04-0.63-0.12c-0.2-0.08-0.38-0.2-0.53-0.35c-0.16-0.15-0.28-0.32-0.36-0.52c-0.08-0.19-0.12-0.4-0.12-0.62     c0-0.22,0.04-0.42,0.12-0.62c0.08-0.19,0.2-0.36,0.36-0.52c0.15-0.15,0.33-0.27,0.53-0.35c0.2-0.08,0.41-0.12,0.63-0.12     c0.22,0,0.43,0.04,0.63,0.12c0.2,0.08,0.38,0.2,0.53,0.35c0.15,0.15,0.27,0.32,0.35,0.52C14.9,12.43,14.94,12.64,14.94,12.86     L14.94,12.86z M13.31,13.75c0.23,0,0.42-0.08,0.57-0.25c0.15-0.17,0.23-0.38,0.23-0.64c0-0.26-0.08-0.47-0.23-0.64     c-0.15-0.17-0.34-0.26-0.57-0.26c-0.23,0-0.42,0.09-0.57,0.26c-0.15,0.17-0.23,0.38-0.23,0.64c0,0.26,0.07,0.48,0.22,0.65     C12.88,13.67,13.07,13.75,13.31,13.75L13.31,13.75z M17.05,13.25v-0.64h1.64c0,0.02,0,0.04,0,0.07c0,0.02,0,0.06,0,0.11     c0,0.53-0.14,0.94-0.42,1.23c-0.28,0.29-0.67,0.44-1.17,0.44c-0.25,0-0.47-0.04-0.66-0.11c-0.19-0.07-0.37-0.19-0.52-0.34     c-0.15-0.15-0.26-0.32-0.34-0.52c-0.08-0.2-0.12-0.41-0.12-0.63c0-0.23,0.04-0.44,0.12-0.63c0.08-0.19,0.19-0.36,0.35-0.52     c0.15-0.15,0.33-0.26,0.53-0.34c0.2-0.08,0.41-0.11,0.64-0.11c0.3,0,0.56,0.06,0.79,0.18c0.23,0.12,0.42,0.29,0.58,0.53     l-0.72,0.35c-0.09-0.12-0.18-0.21-0.29-0.26c-0.11-0.06-0.23-0.09-0.36-0.09c-0.25,0-0.45,0.08-0.59,0.25     c-0.14,0.17-0.22,0.39-0.22,0.68c0,0.29,0.07,0.52,0.22,0.69c0.14,0.17,0.34,0.25,0.59,0.25c0.21,0,0.39-0.05,0.53-0.16     c0.14-0.1,0.22-0.24,0.25-0.41H17.05L17.05,13.25z M19.33,14.38v-3.06h0.83v2.34h1.04v0.71H19.33L19.33,14.38z M22.55,13.24h0.83     l-0.31-1.01c-0.01-0.03-0.02-0.08-0.04-0.15c-0.02-0.07-0.04-0.16-0.06-0.26c-0.02,0.08-0.04,0.15-0.05,0.22     c-0.02,0.07-0.03,0.13-0.05,0.2L22.55,13.24L22.55,13.24z M21.38,14.38l1.05-3.06h1.04l1.06,3.06h-0.83l-0.15-0.55l-1.18,0     l-0.16,0.55H21.38L21.38,14.38z M25.1,13.39c0.12,0.14,0.25,0.25,0.37,0.32c0.12,0.07,0.24,0.1,0.36,0.1     c0.11,0,0.2-0.03,0.27-0.09c0.07-0.06,0.11-0.14,0.11-0.23c0-0.1-0.03-0.18-0.09-0.24c-0.06-0.05-0.2-0.11-0.42-0.17     c-0.3-0.08-0.51-0.19-0.64-0.32c-0.12-0.13-0.19-0.31-0.19-0.53c0-0.29,0.1-0.53,0.29-0.72c0.2-0.18,0.45-0.28,0.76-0.28     c0.17,0,0.33,0.02,0.48,0.07c0.15,0.05,0.29,0.11,0.43,0.21l-0.26,0.6c-0.09-0.08-0.19-0.14-0.29-0.18     c-0.1-0.04-0.2-0.06-0.3-0.06c-0.1,0-0.18,0.02-0.24,0.07c-0.06,0.05-0.09,0.11-0.09,0.18c0,0.08,0.03,0.14,0.08,0.18     c0.05,0.05,0.16,0.09,0.32,0.13l0.04,0.01c0.34,0.09,0.56,0.19,0.67,0.3c0.07,0.08,0.13,0.17,0.17,0.27     c0.04,0.1,0.06,0.22,0.06,0.35c0,0.32-0.11,0.59-0.32,0.78c-0.21,0.2-0.5,0.3-0.85,0.3c-0.21,0-0.41-0.04-0.58-0.11     c-0.17-0.07-0.34-0.19-0.5-0.34L25.1,13.39L25.1,13.39z M27.72,13.39c0.12,0.14,0.25,0.25,0.37,0.32c0.12,0.07,0.24,0.1,0.36,0.1     c0.11,0,0.2-0.03,0.27-0.09c0.07-0.06,0.11-0.14,0.11-0.23c0-0.1-0.03-0.18-0.09-0.24c-0.06-0.05-0.2-0.11-0.42-0.17     c-0.3-0.08-0.51-0.19-0.64-0.32c-0.12-0.13-0.19-0.31-0.19-0.53c0-0.29,0.1-0.53,0.29-0.72c0.2-0.18,0.45-0.28,0.76-0.28     c0.17,0,0.33,0.02,0.48,0.07c0.15,0.05,0.29,0.11,0.43,0.21l-0.26,0.6c-0.09-0.08-0.19-0.14-0.29-0.18     c-0.1-0.04-0.2-0.06-0.3-0.06c-0.1,0-0.18,0.02-0.24,0.07c-0.06,0.05-0.09,0.11-0.09,0.18c0,0.08,0.03,0.14,0.08,0.18     c0.05,0.05,0.16,0.09,0.32,0.13l0.04,0.01c0.34,0.09,0.56,0.19,0.67,0.3c0.07,0.08,0.13,0.17,0.17,0.27     c0.04,0.1,0.06,0.22,0.06,0.35c0,0.32-0.11,0.59-0.32,0.78c-0.21,0.2-0.5,0.3-0.85,0.3c-0.21,0-0.41-0.04-0.58-0.11     c-0.17-0.07-0.34-0.19-0.5-0.34L27.72,13.39L27.72,13.39z"/>
		</g>
		<g>
			<path class="st1" d="M31.83,8.86l-3.05-5.52c-0.71-1.37-2.04-2.36-3.62-2.62l0,0c0,0-0.02,0-0.02,0C22.16,0.25,19.11,0,16,0     c-0.76,0-1.51,0.02-2.25,0.04c-2.33,0.09-4.63,0.32-6.88,0.68c0,0-0.02,0-0.02,0l0,0C5.26,0.98,3.93,1.97,3.22,3.34L0.17,8.86     C0.06,9.04,0,9.24,0,9.46c0,0.65,0.52,1.17,1.17,1.17h0l5.09,0l1.65-3.76h2.06l0.96,0l-1.07,3.76l20.96,0h0     c0.65,0,1.17-0.52,1.17-1.17C32,9.24,31.94,9.04,31.83,8.86z M11.58,4.59h-0.34l-2.32,0l1.34-3.06l2.18,0l-0.51,1.78L11.58,4.59z     "/>
		</g>
	</g>
</g>
</svg>